<svg width="382.601" height="92.8" viewBox="0 0 385.601 95.8" xmlns="http://www.w3.org/2000/svg"><g id="svgGroup" stroke-linecap="round" fill-rule="evenodd" font-size="9pt" stroke="#78ba52" stroke-width="1mm" fill="#78ba52" style="stroke:#78ba52;stroke-width:1mm;fill:#78ba52"><path d="M 0 70 L 0 22 L 44.1 22 A 30.316 30.316 0 0 1 48.591 22.312 Q 50.924 22.662 52.836 23.406 A 14.341 14.341 0 0 1 55.4 24.7 A 14.553 14.553 0 0 1 58.645 27.422 A 11.794 11.794 0 0 1 61.05 31.7 A 27.141 27.141 0 0 1 61.973 35.788 Q 62.292 37.905 62.372 40.321 A 50.18 50.18 0 0 1 62.4 42 L 62.4 70 L 53.6 70 L 53.6 42 Q 53.6 34.2 48.9 31.7 A 7.015 7.015 0 0 0 47.394 31.131 Q 44.675 30.4 39.2 30.4 L 35.1 30.4 L 35.1 70 L 26.3 70 L 26.3 30.4 L 8.8 30.4 L 8.8 70 L 0 70 Z M 169.9 61.6 L 169.9 0 L 178.9 0 L 178.9 70 L 155.4 70 A 27.863 27.863 0 0 1 147.22 68.853 A 22.207 22.207 0 0 1 137.7 63.05 A 23.602 23.602 0 0 1 130.97 47.615 A 31.402 31.402 0 0 1 130.9 45.5 A 25.244 25.244 0 0 1 132.718 35.801 A 23.618 23.618 0 0 1 137.95 28.05 A 23.864 23.864 0 0 1 146.451 22.448 A 23.245 23.245 0 0 1 154.7 21 Q 160.9 21 166.3 24 L 166.3 33 A 19.147 19.147 0 0 0 155.57 29.416 A 23.634 23.634 0 0 0 154.7 29.4 A 13.286 13.286 0 0 0 144.943 33.443 A 16.498 16.498 0 0 0 144.55 33.85 A 15.16 15.16 0 0 0 140.728 41.668 A 21.434 21.434 0 0 0 140.4 45.5 A 21.917 21.917 0 0 0 140.933 50.47 A 14.948 14.948 0 0 0 144.35 57.2 A 12.908 12.908 0 0 0 151.655 61.252 A 19.163 19.163 0 0 0 155.4 61.6 L 169.9 61.6 Z M 190.9 46 L 190.9 0 L 199.9 0 L 199.9 46 Q 199.9 51.951 202.198 55.888 A 13.279 13.279 0 0 0 203.95 58.25 A 13.315 13.315 0 0 0 211.348 62.256 A 19.499 19.499 0 0 0 215.1 62.6 Q 222.5 62.6 226.7 58.35 A 13.624 13.624 0 0 0 230.008 52.649 Q 230.663 50.508 230.837 47.926 A 28.642 28.642 0 0 0 230.9 46 A 21.034 21.034 0 0 0 230.312 40.885 A 14.57 14.57 0 0 0 226.35 33.85 A 15.355 15.355 0 0 0 217.817 29.661 A 21.537 21.537 0 0 0 214.4 29.4 A 18.477 18.477 0 0 0 208.186 30.416 A 16.509 16.509 0 0 0 203.5 33 L 203.5 24 Q 209 21 215.4 21 A 26.893 26.893 0 0 1 224.187 22.382 A 23 23 0 0 1 232.95 27.85 Q 239.9 34.7 239.9 46 Q 239.9 57.9 232.65 64.45 A 25.147 25.147 0 0 1 218.393 70.77 A 33.706 33.706 0 0 1 214.4 71 Q 203.9 71 197.4 64.2 A 22.863 22.863 0 0 1 191.567 52.831 A 33.254 33.254 0 0 1 190.9 46 Z M 342.8 46.7 L 342.8 22 L 351.6 22 L 351.6 47.1 Q 351.6 53.518 353.17 56.86 A 8.05 8.05 0 0 0 354.1 58.4 Q 356.6 61.6 363.3 61.6 L 373.8 61.6 L 373.8 22 L 382.6 22 L 382.6 67.6 A 38.008 38.008 0 0 1 381.96 74.812 Q 381.169 78.903 379.398 82.074 A 18.87 18.87 0 0 1 376.05 86.45 Q 371.113 91.236 361.945 92.415 A 50.639 50.639 0 0 1 355.5 92.8 L 348.3 92.8 L 348.3 84.4 L 354.6 84.4 A 34.309 34.309 0 0 0 361.546 83.759 Q 373.09 81.363 373.8 70 L 365.4 70 Q 352.3 70 347.55 65.4 Q 343.693 61.665 342.968 51.666 A 68.856 68.856 0 0 1 342.8 46.7 Z M 312.3 30.4 L 303.4 30.4 L 321.3 12.5 L 321.3 22 L 334.8 22 L 334.8 30.4 L 321.3 30.4 L 321.3 51 A 17.571 17.571 0 0 0 321.462 53.456 Q 321.643 54.737 322.027 55.806 A 9.084 9.084 0 0 0 322.45 56.8 A 7.143 7.143 0 0 0 323.915 58.813 A 6.404 6.404 0 0 0 325.8 60.05 Q 328 61 329.95 61.3 A 22.565 22.565 0 0 0 331.546 61.483 Q 332.987 61.6 334.8 61.6 L 334.8 70 A 48.05 48.05 0 0 1 328.806 69.652 Q 322.13 68.81 318.232 65.932 A 14.041 14.041 0 0 1 317.8 65.6 A 13.383 13.383 0 0 1 313.601 59.549 Q 312.3 55.961 312.3 51 L 312.3 30.4 Z M 96.747 21.007 A 23.143 23.143 0 0 0 79.9 28.3 A 23.648 23.648 0 0 0 74.49 36.692 A 26.406 26.406 0 0 0 72.9 46 A 29.06 29.06 0 0 0 72.902 46.324 A 25.553 25.553 0 0 0 74.75 55.75 Q 76.6 60.3 79.9 63.7 Q 83.2 67.1 87.65 69.05 A 22.385 22.385 0 0 0 90.662 70.12 A 25.133 25.133 0 0 0 97.4 71 A 27.516 27.516 0 0 0 97.805 70.997 A 24.029 24.029 0 0 0 107.1 69.05 Q 111.6 67.1 114.9 63.7 Q 118.2 60.3 120.05 55.75 A 24.578 24.578 0 0 0 120.433 54.747 A 25.85 25.85 0 0 0 121.9 46 A 28.372 28.372 0 0 0 121.9 45.838 A 25.006 25.006 0 0 0 120 36.25 Q 118.1 31.7 114.75 28.3 Q 111.4 24.9 106.95 22.95 Q 102.5 21 97.4 21 A 29.742 29.742 0 0 0 96.747 21.007 Z M 272.747 21.007 A 23.143 23.143 0 0 0 255.9 28.3 A 23.648 23.648 0 0 0 250.49 36.692 A 26.406 26.406 0 0 0 248.9 46 A 29.06 29.06 0 0 0 248.902 46.324 A 25.553 25.553 0 0 0 250.75 55.75 Q 252.6 60.3 255.9 63.7 Q 259.2 67.1 263.65 69.05 A 22.385 22.385 0 0 0 266.662 70.12 A 25.133 25.133 0 0 0 273.4 71 A 27.516 27.516 0 0 0 273.805 70.997 A 24.029 24.029 0 0 0 283.1 69.05 Q 287.6 67.1 290.9 63.7 Q 294.2 60.3 296.05 55.75 A 24.578 24.578 0 0 0 296.433 54.747 A 25.85 25.85 0 0 0 297.9 46 A 28.372 28.372 0 0 0 297.9 45.838 A 25.006 25.006 0 0 0 296 36.25 Q 294.1 31.7 290.75 28.3 Q 287.4 24.9 282.95 22.95 Q 278.5 21 273.4 21 A 29.742 29.742 0 0 0 272.747 21.007 Z M 97.4 29.4 A 17.272 17.272 0 0 0 92.258 30.13 A 13.727 13.727 0 0 0 86.15 34 A 15.715 15.715 0 0 0 82.236 42.059 A 22.141 22.141 0 0 0 81.9 46 A 20.986 20.986 0 0 0 82.548 51.354 A 15.407 15.407 0 0 0 86.15 58 Q 90.4 62.6 97.4 62.6 A 17.497 17.497 0 0 0 102.458 61.905 A 13.504 13.504 0 0 0 108.7 57.95 A 16.046 16.046 0 0 0 112.621 49.588 A 22.204 22.204 0 0 0 112.9 46 A 20.732 20.732 0 0 0 112.21 40.518 A 15.668 15.668 0 0 0 108.7 34.05 Q 104.5 29.4 97.4 29.4 Z M 273.4 29.4 A 17.272 17.272 0 0 0 268.258 30.13 A 13.727 13.727 0 0 0 262.15 34 A 15.715 15.715 0 0 0 258.236 42.059 A 22.141 22.141 0 0 0 257.9 46 A 20.986 20.986 0 0 0 258.548 51.354 A 15.407 15.407 0 0 0 262.15 58 Q 266.4 62.6 273.4 62.6 A 17.497 17.497 0 0 0 278.458 61.905 A 13.504 13.504 0 0 0 284.7 57.95 A 16.046 16.046 0 0 0 288.621 49.588 A 22.204 22.204 0 0 0 288.9 46 A 20.732 20.732 0 0 0 288.21 40.518 A 15.668 15.668 0 0 0 284.7 34.05 Q 280.5 29.4 273.4 29.4 Z"/></g></svg>